<?xml version="1.0" encoding="UTF-8"?>
<svg xmlns="http://www.w3.org/2000/svg" xmlns:xlink="http://www.w3.org/1999/xlink" width="172px" height="50px" viewBox="0 0 171 50" version="1.1">
<g id="surface1">
<path style=" stroke:none;fill-rule:evenodd;fill:rgb(6.27451%,55.29412%,90.980393%);fill-opacity:1;" d="M 22.554688 0.0820312 C 14.300781 0.871094 7.621094 5.246094 3.566406 12.003906 C 0.941406 16.402344 -0.300781 21.585938 0.0742188 26.933594 C 1.023438 39.996094 12.210938 51.046875 26.523438 49.90625 C 39.390625 48.871094 49.980469 37.28125 48.902344 23.035156 C 48.511719 17.8125 46.691406 13.519531 43.792969 9.621094 C 42.472656 7.859375 42.222656 7.835938 40.859375 6.40625 C 39.140625 4.625 35.542969 2.570312 33.246094 1.660156 C 30.1875 0.433594 26.257812 -0.269531 22.554688 0.0820312 Z M 22.554688 0.0820312 "/>
<path style=" stroke:none;fill-rule:evenodd;fill:rgb(100%,100%,100%);fill-opacity:1;" d="M 10.308594 17.707031 C 10 18.621094 10.1875 28.675781 10.1875 30.542969 C 10.1875 32.550781 9.792969 33.195312 12.9375 34.273438 C 21.292969 37.136719 29.542969 27.429688 37.839844 32.222656 C 38.210938 32.449219 38.6875 32.90625 38.789062 32.179688 L 38.808594 19.21875 C 38.808594 17.832031 38.933594 17.394531 38.003906 16.753906 C 30.578125 11.570312 22.554688 20.445312 15.027344 19.449219 C 12.234375 19.074219 11.074219 17.644531 10.308594 17.707031 Z M 10.308594 17.707031 "/>
<path style=" stroke:none;fill-rule:evenodd;fill:rgb(6.27451%,55.29412%,90.980393%);fill-opacity:1;" d="M 67.621094 37.652344 C 70.867188 37.882812 74.652344 35.371094 75.996094 33.921875 C 80.628906 28.882812 80.734375 21.605469 76.078125 16.339844 C 74.34375 14.390625 70.269531 12.210938 67.660156 12.523438 L 58.292969 12.523438 L 58.292969 37.632812 Z M 63.566406 32.222656 C 64.25 32.34375 67.082031 32.304688 67.867188 32.222656 C 74.257812 31.640625 76.535156 22.871094 71.15625 19.179688 C 70.246094 18.578125 69.253906 18.082031 67.953125 17.933594 C 67.25 17.871094 64.1875 17.8125 63.566406 17.933594 Z M 63.566406 32.222656 "/>
<path style=" stroke:none;fill-rule:evenodd;fill:rgb(6.27451%,55.29412%,90.980393%);fill-opacity:1;" d="M 149.6875 37.714844 L 155.023438 37.695312 L 155.023438 32.28125 L 165.613281 32.304688 L 165.632812 37.695312 L 170.96875 37.695312 C 170.96875 34.6875 170.96875 31.722656 170.96875 28.738281 C 170.96875 26.042969 171.199219 22.683594 170.535156 20.257812 C 169.417969 16.132812 165.511719 12.460938 160.359375 12.441406 C 155.148438 12.417969 151.363281 16.070312 150.164062 20.132812 C 149.460938 22.539062 149.6875 26 149.6875 28.632812 C 149.6875 31.660156 149.667969 34.6875 149.6875 37.714844 Z M 155.023438 26.851562 L 165.632812 26.851562 C 165.65625 24.527344 165.902344 22.269531 164.867188 20.507812 C 164.125 19.21875 162.550781 17.894531 160.359375 17.894531 C 158.105469 17.871094 156.617188 19.160156 155.808594 20.464844 C 154.753906 22.207031 155.003906 24.589844 155.023438 26.851562 Z M 155.023438 26.851562 "/>
<path style=" stroke:none;fill-rule:evenodd;fill:rgb(6.27451%,55.29412%,90.980393%);fill-opacity:1;" d="M 88.738281 37.695312 L 94.03125 37.695312 C 94.050781 36.574219 93.886719 33.113281 94.09375 32.28125 L 104.621094 32.304688 L 104.664062 37.695312 L 109.976562 37.714844 C 109.957031 34.707031 109.976562 31.722656 109.976562 28.738281 C 109.976562 26.167969 110.226562 22.515625 109.542969 20.238281 C 106.503906 9.910156 92.335938 9.847656 89.191406 20.132812 C 88.46875 22.476562 88.714844 26.042969 88.714844 28.632812 C 88.714844 31.640625 88.65625 34.707031 88.738281 37.695312 Z M 94.050781 26.851562 L 104.664062 26.851562 C 104.683594 24.570312 104.929688 22.269531 103.898438 20.507812 C 101.972656 17.25 97.132812 16.773438 94.839844 20.484375 C 93.785156 22.164062 94.011719 24.632812 94.050781 26.851562 Z M 94.050781 26.851562 "/>
<path style=" stroke:none;fill-rule:evenodd;fill:rgb(6.27451%,55.29412%,90.980393%);fill-opacity:1;" d="M 119.328125 22.332031 L 119.265625 26.0625 C 119.265625 29.214844 119.097656 35.082031 119.265625 37.632812 L 124.476562 37.632812 C 124.601562 35.847656 124.289062 23.097656 124.621094 22.683594 C 124.621094 20.195312 127.207031 17.894531 129.8125 17.894531 C 131.40625 17.871094 132.582031 18.535156 133.433594 19.304688 C 134.09375 19.925781 135.105469 21.292969 135.085938 22.703125 C 135.335938 22.828125 135.148438 36.140625 135.210938 37.632812 L 140.441406 37.632812 L 140.402344 22.394531 C 140.527344 21.210938 139.800781 19.367188 139.347656 18.433594 C 135.480469 10.554688 124.414062 10.449219 120.441406 18.289062 C 119.96875 19.199219 119.222656 21.105469 119.328125 22.332031 Z M 119.328125 22.332031 "/>
<path style=" stroke:none;fill-rule:evenodd;fill:rgb(47.450981%,73.333335%,90.588236%);fill-opacity:1;" d="M 67.621094 37.652344 L 58.292969 37.632812 L 58.292969 12.523438 L 67.660156 12.523438 C 67.496094 12.273438 63.585938 12.417969 63.050781 12.417969 C 61.683594 12.417969 59.535156 12.296875 58.25 12.441406 C 58.148438 12.835938 58.085938 37.074219 58.25 37.714844 C 59.121094 37.820312 65.140625 37.734375 67.019531 37.734375 L 67.558594 37.695312 C 67.558594 37.695312 67.601562 37.675781 67.621094 37.652344 Z M 67.621094 37.652344 "/>
<path style=" stroke:none;fill-rule:evenodd;fill:rgb(47.450981%,73.333335%,90.588236%);fill-opacity:1;" d="M 135.085938 22.703125 C 135.148438 24.757812 134.984375 36.988281 135.167969 37.714844 L 140.484375 37.734375 C 140.628906 37.15625 140.527344 27.617188 140.527344 26.167969 C 140.527344 25.480469 140.710938 22.765625 140.402344 22.394531 L 140.441406 37.632812 L 135.210938 37.632812 C 135.148438 36.140625 135.335938 22.828125 135.085938 22.703125 Z M 135.085938 22.703125 "/>
<path style=" stroke:none;fill-rule:evenodd;fill:rgb(47.450981%,73.333335%,90.588236%);fill-opacity:1;" d="M 124.621094 22.683594 C 124.289062 23.097656 124.601562 35.847656 124.476562 37.632812 L 119.265625 37.632812 C 119.097656 35.082031 119.265625 29.214844 119.265625 26.0625 L 119.328125 22.332031 C 119.035156 22.457031 119.160156 29.132812 119.160156 29.960938 C 119.160156 31.183594 119.015625 37.03125 119.222656 37.714844 L 124.539062 37.734375 Z M 124.621094 22.683594 "/>
</g>
</svg>
